<svg width="902" height="911" viewBox="0 0 902 911" fill="none" xmlns="http://www.w3.org/2000/svg">
<circle cx="450" cy="450" r="435" fill="black" stroke="white" stroke-width="30"/>
<path d="M147.5 132C218.5 216.667 339.2 478.5 254 848.5" stroke="white" stroke-width="30"/>
<path d="M640.5 56C611.5 167.5 606.4 453.6 818 706" stroke="white" stroke-width="30"/>
<path d="M86.5 681C183 592.833 476.6 439.9 879 533.5" stroke="white" stroke-width="30"/>
<path d="M66 249C189.5 316.833 519.9 411.8 853.5 249" stroke="white" stroke-width="30"/>
<path d="M488 904.5C418.5 741.667 374 355.1 752 111.5" stroke="white" stroke-width="30"/>
<path d="M711.5 813C638.667 668.833 399.5 376.5 25.5 360.5" stroke="white" stroke-width="30"/>
<path d="M462.5 5C479.333 196.5 417.5 580.5 35.5 584.5" stroke="white" stroke-width="30"/>
<path d="M264.5 56C325.5 177.833 537.9 431.7 899.5 472.5" stroke="white" stroke-width="30"/>
</svg>
